<?xml version="1.0" encoding="UTF-8"?>
<svg id="Layer_1" data-name="Layer 1" xmlns="http://www.w3.org/2000/svg" xmlns:xlink="http://www.w3.org/1999/xlink" viewBox="0 0 293.360063 363.895076">
  <defs>
    <style>
      .cls-1 {
        fill: #f1f2f2;
        stroke: #35a6ff;
        stroke-width: 12px;
      }

      .cls-1, .cls-2, .cls-3 {
        stroke-linejoin: bevel;
      }

      .cls-4 {
        stroke-width: 2px;
      }

      .cls-4, .cls-5 {
        stroke-miterlimit: 10;
      }

      .cls-4, .cls-5, .cls-2 {
        stroke: #1fb6ff;
      }

      .cls-4, .cls-2, .cls-3 {
        fill: none;
        stroke-linecap: round;
      }

      .cls-5 {
        fill: #fff;
      }

      .cls-2, .cls-3 {
        stroke-width: 4px;
      }

      .cls-6 {
        fill: url(#linear-gradient);
      }

      .cls-3 {
        stroke: #2a66ff;
      }
    </style>
    <linearGradient id="linear-gradient" x1="90.348155" y1="27.384131" x2="206.723466" y2="27.384131" gradientUnits="userSpaceOnUse">
      <stop offset="0" stop-color="#a5c7ff"/>
      <stop offset="1" stop-color="#6aa5ff"/>
    </linearGradient>
  </defs>
  <path class="cls-1" d="m287.360063,44.687448v288.78318c0,13.48925-10.935198,24.424448-24.424448,24.424448H30.424448c-13.48925,0-24.424448-10.935198-24.424448-24.424448V44.687448"/>
  <rect class="cls-5" x="54.310121" y="214.006513" width="28.136006" height="28.136006"/>
  <rect class="cls-5" x="54.310121" y="267.165606" width="28.136006" height="28.136006"/>
  <path class="cls-6" d="m206.723466,54.768263h-116.375311V19.974516c0-1.297005,1.05143-2.348435,2.348435-2.348435h29.827841c1.23973,0,2.26593-.963647,2.343798-2.200929l.963768-15.313802c.003939-.062596.055857-.111349.118577-.111349h41.252677c.177929,0,.324504.139716.333026.31744l.722737,15.072683c.060026,1.251839,1.092463,2.235957,2.34574,2.235957h33.770275c1.297005,0,2.348435,1.05143,2.348435,2.348435v34.793747Z"/>
  <path class="cls-4" d="m46.87159,127.503093l4.550683,10.144231c1.573128,3.506764,5.892453,4.799958,9.133844,2.734647l29.328541-18.687212"/>
  <path class="cls-4" d="m46.87159,170.440459l4.550683,10.144231c1.573128,3.506764,5.892453,4.799958,9.133844,2.734647l29.328541-18.687212"/>
  <line class="cls-2" x1="120.850368" y1="275.01305" x2="235.35171" y2="275.01305"/>
  <line class="cls-2" x1="120.850368" y1="218.297432" x2="235.35171" y2="218.297432"/>
  <line class="cls-3" x1="120.850368" y1="172.282874" x2="235.35171" y2="172.282874"/>
  <line class="cls-2" x1="120.850368" y1="128.408528" x2="235.35171" y2="128.408528"/>
  <line class="cls-2" x1="120.850368" y1="238.272744" x2="178.101039" y2="238.272744"/>
</svg>